# xmcd
#
# Track frame offsets:
#	150
#	17410
#	35695
#	53017
#	67247
#	84503
#	100500
#	121250
#	138370
#	156270
#
# Disc length: 2275 seconds
#
# Revision: 0
# Processed by: cddbd v1.5.1PL0 Copyright (c) Steve Scherf et al.
# Submitted via: dBpowerAMP V4.0
#
DISCID=7b08e10a
DTITLE=varios - varios
DYEAR=1900
DGENRE=
TTITLE0=ana
TTITLE1=ana2
TTITLE2=ana3
TTITLE3=ana4
TTITLE4=ana5
TTITLE5=ana6
TTITLE6=ana7
TTITLE7=ana8
TTITLE8=ana9
TTITLE9=ana10
EXTD=varios
EXTT0=
EXTT1=
EXTT2=
EXTT3=
EXTT4=
EXTT5=
EXTT6=
EXTT7=
EXTT8=
EXTT9=
PLAYORDER=
